<svg xmlns="http://www.w3.org/2000/svg" viewBox="-40 -3 270 270" width="512" height="512">
  <rect x="-40" y="-3" width="270" height="270" fill="#FFFFFF"/>
  <!-- 사이드미러 (바디색) -->
  <g fill="#E8604C">
    <g transform="translate(29 111) rotate(-16.04)"><rect x="-9.5" y="-5" width="19" height="10" rx="5"/></g>
    <g transform="translate(161 111) rotate(16.04)"><rect x="-9.5" y="-5" width="19" height="10" rx="5"/></g>
  </g>
  <!-- 바디 (기본 코랄) -->
  <path fill="#E8604C" d="M 95 16 C 67 16 51 25 46 46 C 41.5 62 39.5 80 39.5 98 C 39.5 116 41 128 41 138 C 41 150 39 164 38.5 180 C 37.5 202 41 219 48 230 C 56 242 78 248 95 248 C 112 248 134 242 142 230 C 149 219 152.5 202 151.5 180 C 151 164 149 150 149 138 C 149 128 150.5 116 150.5 98 C 150.5 80 148.5 62 144 46 C 139 25 123 16 95 16 Z"/>
  <!-- 헤드라이트 (펜더 티어드롭 + 하이라이트) -->
  <ellipse cx="62" cy="40" rx="12" ry="8" fill="#3a3f47" transform="rotate(-17.76 62 40)"/>
  <ellipse cx="128" cy="40" rx="12" ry="8" fill="#3a3f47" transform="rotate(17.76 128 40)"/>
  <circle cx="59" cy="38" r="3.2" fill="#f6efe0"/>
  <circle cx="131" cy="38" r="3.2" fill="#f6efe0"/>
  <!-- 유리 (윈드실드/사이드/리어) -->
  <g fill="#2f333b">
    <path d="M 59 96 C 72 85 118 85 131 96 L 126 122 C 113 113 77 113 64 122 Z"/>
    <path d="M 55 126 C 54 142 54 158 55 172 L 63 168 C 62 156 62 140 63 128 Z"/>
    <path d="M 135 126 C 136 142 136 158 135 172 L 127 168 C 128 156 128 140 127 128 Z"/>
    <path d="M 64 178 C 77 186 113 186 126 178 L 121 206 C 109 198 81 198 69 206 Z"/>
  </g>
  <!-- 버건디 인테리어 (대시 + 리어 시트) -->
  <g fill="#8e4444">
    <path d="M 64 97 C 76 89 114 89 126 97 L 124 104 C 113 96 77 96 66 104 Z"/>
    <rect x="76" y="186" width="14" height="9" rx="4.5"/>
    <rect x="100" y="186" width="14" height="9" rx="4.5"/>
  </g>
  <!-- 엔진 데크 + 세로 슬랫 -->
  <rect x="68" y="214" width="54" height="21" rx="9" fill="#2f333b"/>
  <g fill="#4a4e57">
    <rect x="75" y="218" width="2.5" height="13" rx="1.25"/>
    <rect x="83" y="218" width="2.5" height="13" rx="1.25"/>
    <rect x="91" y="218" width="2.5" height="13" rx="1.25"/>
    <rect x="99" y="218" width="2.5" height="13" rx="1.25"/>
    <rect x="107" y="218" width="2.5" height="13" rx="1.25"/>
    <rect x="115" y="218" width="2.5" height="13" rx="1.25"/>
  </g>
</svg>
